<svg width="106" height="26" viewBox="0 0 106 26" fill="none" xmlns="http://www.w3.org/2000/svg">
    <path d="M42.5174 0.122642H36.8317V25.9951H45.1762V2.46264C45.1762 1.16264 44.3668 0.122642 42.5174 0.122642ZM5.68566 0.122642H0V25.9951H8.34453V2.46264C8.34453 1.16264 7.53509 0.122642 5.68566 0.122642ZM20.2506 10.8464L31.4796 0.343396H21.4819L8.88906 12.6664C8.88906 12.6664 16.277 19.2842 18.8426 21.4819C22.414 24.543 24.7932 25.9902 29.9834 25.9902C30.0668 25.9902 35.2374 26 35.2374 26L19.9415 13.8143C19.9415 13.8143 18.3913 12.7645 20.2506 10.8513V10.8464ZM48.7328 13.0736C48.7328 21.2611 56.3366 25.9951 64.1268 25.9951H74.934V21.5849H66.8102C66.766 21.5849 57.0823 22.0068 57.0823 13.0343C57.0823 4.06189 66.82 4.23358 66.82 4.23358H74.9389V0H64.1317C56.1943 0 48.7377 5.17057 48.7377 13.0736H48.7328ZM105.992 4.23849V0H85.2506C81.7774 0 79.7955 0.210943 79.7955 3.04642V25.9902H105.992V21.5849H88.6649V15.1536H105.849V10.7238H88.6698V4.23849H105.997H105.992Z" fill="white"/>
</svg>
