<svg width="188" height="32" viewBox="0 0 188 32" fill="none" xmlns="http://www.w3.org/2000/svg">
    <path d="M-0.00292969 6.65333L2.0886 5.28535L10.189 0V26.4606L2.0886 31.7404V10.0619L-0.00292969 11.4299V6.65333Z" fill="white"/>
    <path d="M28.3919 27.0256C27.6179 22.9524 25.9293 19.201 23.5349 16.0028C25.9293 12.8046 27.6179 9.05893 28.3919 4.9801L20.7663 0C20.7663 3.79858 19.6239 7.32534 17.6681 10.2704C16.1192 12.5993 14.0616 14.5665 11.6592 16.0023C14.0673 17.4438 16.1249 19.3996 17.6681 21.7342C19.6239 24.6793 20.7663 28.2127 20.7663 32L28.3919 27.0256Z" fill="white"/>
    <path d="M31.5312 18.4042H41.2785L42.5312 13.5957H32.784L31.5312 18.4042Z" fill="white"/>
    <path d="M57.8177 10.0067C58.5029 9.54403 59.3484 9.41053 59.9446 9.41053C60.7985 9.41943 62.1243 9.51733 63.6995 10.852L64.1445 11.2346L69.0111 5.48666L68.3705 5.15743C66.0749 3.95623 63.121 3.19995 60.3803 3.19995C57.0259 3.19995 54.3919 4.25875 52.622 5.52226C51.1181 6.58997 49.2583 8.44963 48.4489 11.4837C48.2885 12.071 48.1374 12.7917 48.1374 13.5658C48.1374 14.3934 48.333 15.3187 48.9644 16.1284V16.1373C49.9258 17.3741 51.527 17.8902 52.5775 18.2371L54.2408 18.7266C55.8513 19.1714 56.7682 19.465 57.0973 19.8032L57.1149 19.821C57.3106 19.9989 57.3551 20.168 57.3643 20.3815L57.3282 20.6484C57.2216 21.0756 56.884 21.5115 56.4835 21.7963H56.4659C56.0293 22.1255 55.2198 22.4903 53.9293 22.4903C51.7319 22.4992 49.9435 21.4137 48.8847 20.2925L48.4489 19.821L48.0215 20.3103L43.332 25.6935L43.8484 26.0672C45.521 27.2773 47.0962 27.8557 47.532 28.0069C49.401 28.6654 51.0468 28.8166 52.7555 28.7988C55.638 28.8077 58.654 28.4073 61.5995 26.3075C64.0824 24.5546 65.3276 22.3212 65.9237 20.0968C66.1017 19.4205 66.2084 18.8066 66.2084 18.1749C66.2084 17.205 65.9153 16.2618 65.2209 15.4077V15.3988C64.0286 13.9039 62.2754 13.3612 60.7187 12.8985L60.5315 12.8362L58.743 12.329C58.0134 12.1333 57.5868 11.9375 57.3551 11.7862C57.1326 11.6528 57.0881 11.5905 57.0528 11.5282L56.9814 11.288L57.0352 10.9321C57.1149 10.6117 57.3727 10.327 57.8177 9.99778" fill="white"/>
    <path d="M88.3661 3.72461L82.2174 9.72166L79.0947 3.72461H69.5117L76.2113 16.5374L73.0702 28.2824H81.2299L84.3081 16.7865L98.4823 3.72461H88.3661Z" fill="white"/>
    <path d="M104.035 10.0067C104.729 9.54403 105.574 9.41053 106.17 9.41053C107.033 9.41943 108.35 9.51733 109.925 10.852L110.37 11.2346L115.237 5.48666L114.596 5.15743C112.301 3.95623 109.356 3.19995 106.606 3.19995C103.243 3.19995 100.618 4.25875 98.8476 5.52226C97.3438 6.58997 95.4839 8.44963 94.6745 11.4837C94.5141 12.071 94.3538 12.7917 94.3538 13.5658C94.3538 14.3934 94.5494 15.3187 95.1817 16.1284V16.1373C96.1515 17.3741 97.7443 17.8902 98.7939 18.2371L100.466 18.7266C102.077 19.1714 102.994 19.465 103.323 19.8032V19.821C103.528 19.9989 103.581 20.168 103.581 20.3815L103.545 20.6484C103.43 21.0756 103.1 21.5115 102.7 21.7963H102.682C102.247 22.1255 101.436 22.4903 100.147 22.4903C97.9483 22.4992 96.1599 21.4137 95.1011 20.2925L94.6569 19.821L94.2295 20.3103L89.54 25.6935L90.0564 26.0672C91.729 27.2773 93.3042 27.8557 93.74 28.0069C95.5998 28.6654 97.2548 28.8166 98.9542 28.7988C101.837 28.8077 104.862 28.4073 107.798 26.3075C110.281 24.5546 111.526 22.3212 112.123 20.0968C112.301 19.4205 112.407 18.8066 112.407 18.1749C112.407 17.205 112.105 16.2618 111.411 15.4077V15.3988C110.219 13.9039 108.466 13.3612 106.909 12.8985L104.933 12.329C104.204 12.1333 103.786 11.9375 103.545 11.7862C103.323 11.6528 103.278 11.5905 103.243 11.5282L103.172 11.288L103.225 10.9321C103.314 10.6117 103.563 10.327 104.008 9.99778" fill="white"/>
    <path d="M134.92 10.042L136.61 3.72461H117.159L115.46 10.042H121.137L116.243 28.2824H124.358L129.252 10.042H134.92Z" fill="white"/>
    <path d="M142.482 19.0821H150.276L151.958 12.7647H144.173L144.903 10.042H153.133L153.257 9.60604L154.832 3.72461H138.479L131.902 28.2824H148.248L149.939 21.9561H141.717L142.482 19.0821Z" fill="white"/>
    <path d="M179.417 3.72461L171 15.3095L169.104 3.72461H161.408L150.081 28.2824H150.998H158.249L163.526 16.1903L165.804 28.2824H169.344L178.242 16.3417L176.774 28.2824H184.88L187.256 3.72461H179.417Z" fill="white"/>
</svg>
